<?xml version="1.0" encoding="UTF-8"?>
<!-- Generator: Adobe Illustrator 26.0.3, SVG Export Plug-In . SVG Version: 6.00 Build 0)  -->
<svg xmlns="http://www.w3.org/2000/svg" xmlns:xlink="http://www.w3.org/1999/xlink" version="1.1" id="Capa_1" x="0px" y="0px" viewBox="0 0 512 512" style="enable-background:new 0 0 512 512;" xml:space="preserve" width="512" height="512">
<g>
	<g>
		<path style="fill:#33CCCC;" d="M259.599,352.174c-1.751,0-3.508-0.417-5.118-1.264l-50.231-26.407l-50.23,26.407    c-3.706,1.949-8.196,1.624-11.584-0.837c-3.387-2.461-5.083-6.632-4.376-10.759l9.593-55.933l-40.638-39.612    c-2.998-2.922-4.077-7.294-2.783-11.276c1.293-3.982,4.736-6.885,8.879-7.487l56.16-8.161l25.115-50.889    c1.853-3.755,5.677-6.132,9.864-6.132s8.011,2.377,9.864,6.132l25.115,50.889l56.16,8.161c4.144,0.602,7.585,3.504,8.879,7.487    c1.294,3.982,0.215,8.354-2.783,11.276l-40.638,39.612l9.593,55.933C271.732,345.816,266.178,352.344,259.599,352.174z     M204.25,301.075c1.758,0,3.517,0.421,5.119,1.264l35.622,18.727l-6.803-39.665c-0.612-3.568,0.571-7.209,3.164-9.736    l28.818-28.091l-39.826-5.787c-3.583-0.521-6.68-2.771-8.282-6.018l-17.811-36.088l-17.81,36.088    c-1.603,3.247-4.7,5.497-8.282,6.018l-39.826,5.787l28.818,28.091c2.592,2.527,3.775,6.168,3.164,9.736l-6.803,39.665    l35.621-18.727C200.733,301.497,202.492,301.075,204.25,301.075z"/>
	</g>
	<g>
		<path d="M501,221.253c6.075,0,11-4.925,11-11V92.328c0-6.075-4.925-11-11-11H11c-6.075,0-11,4.925-11,11v117.925    c0,6.075,4.925,11,11,11c19.16,0,34.747,15.587,34.747,34.747S30.16,290.747,11,290.747c-6.075,0-11,4.925-11,11v117.925    c0,6.075,4.925,11,11,11h490c6.075,0,11-4.925,11-11V301.747c0-6.075-4.925-11-11-11c-19.16,0-34.747-15.587-34.747-34.747    S481.84,221.253,501,221.253z M490,311.677v96.995H385.535v-23.646c0-6.075-4.925-11-11-11s-11,4.925-11,11v23.646H22v-96.995    c60.649-13.076,60.691-98.254,0-111.354v-96.995h341.535v33.812c0,6.075,4.925,11,11,11s11-4.925,11-11v-33.812H490v96.995    C429.352,213.399,429.309,298.577,490,311.677z"/>
		<path d="M374.53,186.971c-6.075,0-11,4.925-11,11v32.698c0,6.075,4.925,11,11,11s11-4.925,11-11v-32.698    C385.53,191.896,380.605,186.971,374.53,186.971z"/>
		<path d="M374.53,280.498c-6.075,0-11,4.925-11,11v32.698c0,6.075,4.925,11,11,11s11-4.925,11-11v-32.698    C385.53,285.422,380.605,280.498,374.53,280.498z"/>
	</g>
</g>















</svg>
